<?xml version="1.0" standalone="no"?>
<!DOCTYPE svg PUBLIC "-//W3C//DTD SVG 20010904//EN"
 "http://www.w3.org/TR/2001/REC-SVG-20010904/DTD/svg10.dtd">
<svg version="1.0" xmlns="http://www.w3.org/2000/svg"
 width="4510.000000pt" height="3543.000000pt" viewBox="0 0 4510.000000 3543.000000"
 preserveAspectRatio="xMidYMid meet">

<g transform="translate(0.000000,3543.000000) scale(0.100000,-0.100000)"
fill="#000000" stroke="none">
<path d="M12850 22552 c0 -4 625 -629 1388 -1389 l1389 -1381 646 646 647 647
-632 631 c-348 347 -656 647 -684 667 -126 90 -308 158 -473 177 -103 12
-2281 14 -2281 2z"/>
<path d="M2420 20135 l2415 -2415 642 642 643 643 -972 972 -973 973 1945 0
1945 0 800 800 800 800 -4830 0 -4830 0 2415 -2415z"/>
<path d="M34059 22534 c-139 -25 -272 -81 -394 -165 -49 -34 -581 -559 -1738
-1716 l-1667 -1668 633 -633 634 -634 1414 1420 c1043 1047 1437 1436 1503
1485 165 122 372 222 558 272 218 58 45 55 3108 55 l2815 0 -973 -973 -972
-972 643 -643 642 -642 2415 2415 2415 2415 -5480 -1 c-4602 -1 -5492 -3
-5556 -15z"/>
<path d="M29950 22529 c-161 -21 -348 -98 -480 -198 -36 -28 -338 -323 -672
-658 l-608 -608 648 -647 647 -647 1390 1384 1390 1384 -1125 -1 c-619 0
-1154 -4 -1190 -9z"/>
<path d="M11107 21412 c-356 -356 -647 -650 -647 -653 0 -4 41 -33 92 -65 51
-32 131 -90 178 -129 47 -40 706 -696 1464 -1459 l1380 -1387 633 633 633 633
-1537 1537 c-846 846 -1540 1538 -1543 1538 -3 0 -296 -291 -653 -648z"/>
<path d="M17552 19147 l-643 -643 1683 -1679 c926 -924 2197 -2193 2825 -2820
l1142 -1140 2818 2808 c1550 1545 2819 2814 2821 2820 1 7 -287 301 -640 654
l-643 643 -2178 -2178 -2177 -2177 -2177 2177 c-1198 1198 -2180 2178 -2183
2178 -3 0 -294 -289 -648 -643z"/>
<path d="M6765 17070 l-640 -640 395 -394 c420 -418 473 -462 627 -526 41 -17
109 -41 151 -53 77 -22 79 -22 1237 -25 l1160 -2 -1140 1140 c-627 627 -1142
1140 -1145 1140 -3 0 -293 -288 -645 -640z"/>
<path d="M15481 17076 l-634 -634 3852 -3866 3852 -3866 1547 1553 c5210 5227
6147 6170 6150 6180 1 7 -281 295 -628 642 l-630 630 -3220 -3220 -3220 -3220
-3218 3218 -3217 3217 -634 -634z"/>
<path d="M36171 16196 l-1514 -1514 73 -37 c101 -51 286 -111 421 -136 110
-21 143 -22 994 -26 l880 -4 975 976 975 975 -640 640 c-352 352 -642 640
-645 640 -3 0 -686 -681 -1519 -1514z"/>
<path d="M27943 7968 l-5393 -5393 -2952 2951 c-2360 2359 -2968 2961 -3026
2999 -87 56 -195 103 -312 136 l-85 24 -1155 3 -1155 2 4342 -4342 4343 -4343
6435 6435 6435 6435 -677 5 c-669 6 -679 6 -758 28 -103 30 -250 100 -329 156
-33 24 -117 101 -186 170 -69 69 -127 126 -130 126 -3 0 -2432 -2427 -5397
-5392z"/>
</g>
</svg>
